<svg xmlns="http://www.w3.org/2000/svg" width="53" height="32" viewBox="0 0 53 32">
    <g fill="none" fill-rule="evenodd">
        <g fill-rule="nonzero">
            <g>
                <path fill="#40A1CE" d="M3.797 30.374h37.968c2.096-.002 3.794-1.7 3.796-3.796V3.797C45.56 1.7 43.861.002 41.765 0H3.797C1.7.002.002 1.7 0 3.797v22.78c.002 2.096 1.7 3.795 3.797 3.797zM2.789 5.07c.001-1.117.951-2.023 2.124-2.024h35.402c1.173.001 2.123.907 2.125 2.024v20.235c-.002 1.117-.952 2.022-2.125 2.023H4.913c-1.173-.001-2.123-.906-2.124-2.023V5.07z" transform="translate(-125 -447) translate(125.489 447.426)"/>
                <path fill="#40A1CE" d="M24.418 8.53c.874 0 1.582.779 1.582 1.74 0 .922-.65 1.676-1.473 1.737l-.109.004-17.325-.017c-.873 0-1.582-.78-1.582-1.741 0-.922.65-1.676 1.474-1.738l.108-.004 17.325.018zM32.482 25.986c.47 0 .932-.124 1.339-.36 1.125.65 2.556.4 3.392-.597.837-.996.837-2.449 0-3.445-.836-.996-2.267-1.247-3.392-.596-.976-.563-2.199-.456-3.061.268-.863.723-1.18 1.91-.795 2.968.385 1.058 1.39 1.762 2.517 1.762z" transform="translate(-125 -447) translate(125.489 447.426)"/>
                <path fill="#00B259" d="M47.464 20.678c.394.198.85.23 1.268.09.418-.138.764-.438.96-.833.075-.15 1.837-3.714 1.837-7.386s-1.762-7.237-1.837-7.387c-.413-.813-1.405-1.14-2.222-.733-.816.408-1.15 1.397-.75 2.217.015.03 1.487 3.03 1.487 5.903 0 2.873-1.472 5.873-1.486 5.9-.41.821-.077 1.819.743 2.23zM31.348 16.655c.272.272.641.425 1.026.425s.754-.153 1.026-.425c.192-.191 1.876-1.932 1.876-3.927S33.592 8.992 33.4 8.8c-.565-.568-1.484-.57-2.052-.004-.567.566-.57 1.484-.004 2.052.416.422 1.03 1.311 1.03 1.88 0 .568-.614 1.457-1.026 1.876-.272.272-.425.64-.425 1.025 0 .385.153.754.425 1.026zM39.204 7.35c-.567-.567-1.486-.567-2.052 0-.567.566-.567 1.485 0 2.051.01.01 1.026 1.125 1.026 3.327s-1 3.298-1.042 3.343l.016-.017c-.567.567-.567 1.486 0 2.052.566.567 1.485.567 2.052 0 .192-.192 1.875-1.974 1.875-5.378s-1.683-5.187-1.875-5.379z" transform="translate(-125 -447) translate(125.489 447.426)"/>
            </g>
        </g>
    </g>
</svg>
