<svg xmlns="http://www.w3.org/2000/svg" width="21" height="21" viewBox="0 0 21 21">
    <g fill="none" fill-rule="evenodd">
        <g fill="#FFF" fill-rule="nonzero">
            <g>
                <path d="M15.617 7.35c.242 0 .475.037.694.105l2-2-.932-.93-2.826 2.825h1.064zM19.657 6.802l-.518-.517-1.81 1.81c.392.42.632.981.632 1.599v.461l1.696-1.696c.457-.457.457-1.2 0-1.657zM16.55 3.696L13.198.343c-.458-.457-1.2-.457-1.657 0L4.534 7.35h8.361l3.655-3.654zM3.076 12.237L4.861 12.237 4.861 13.555 3.076 13.555z" transform="translate(-121 -361) translate(121.265 361.738)"/>
                <path d="M15.617 8.522H1.172C.525 8.522 0 9.047 0 9.694v9.134C0 19.475.525 20 1.172 20h14.445c.648 0 1.172-.525 1.172-1.172V9.694c0-.647-.524-1.172-1.172-1.172zM1.904 11.065h4.129v3.661h-4.13v-3.661zm2.28 6.392H1.866v-1.172h2.316v1.172zm3.579 0H5.447v-1.172h2.316v1.172zm3.58 0H9.025v-1.172h2.316v1.172zm3.579 0h-2.316v-1.172h2.316v1.172z" transform="translate(-121 -361) translate(121.265 361.738)"/>
            </g>
        </g>
    </g>
</svg>
