<svg xmlns="http://www.w3.org/2000/svg" width="46" height="38" viewBox="0 0 46 38">
    <g fill="none" fill-rule="evenodd">
        <g>
            <g>
                <g fill="#0091C6" fill-rule="nonzero">
                    <path d="M36.16 28.157l-8.08-5.795c-.376-.27-.878-.286-1.271-.04l-4.552 2.844c-.245.047-1.31-.152-3.367-1.641-1.73-1.253-3.584-3.006-4.959-4.69-2.038-2.497-2.19-3.755-2.078-4.037l2.858-4.574c.246-.393.23-.895-.04-1.271L8.876.873c-.195-.272-.5-.445-.835-.472-.334-.028-.664.093-.901.33L2.97 4.9C.61 7.261-.048 10.857 1.335 13.847c1.85 3.999 4.25 7.694 7.137 10.982 4.125 4.702 9.112 8.394 14.821 10.974 2.922 1.32 6.459.64 8.8-1.701l4.208-4.209c.498-.498.432-1.325-.142-1.736zm-5.683 4.33c-1.671 1.67-4.18 2.166-6.243 1.233C11.926 28.158 5.904 18.28 3.41 12.888c-.982-2.124-.51-4.685 1.178-6.372l3.217-3.217 4.563 6.364c-2.64 4.226-2.487 3.976-2.522 4.041-.572 1.075-.328 2.53.725 4.327 1.72 2.933 5.36 6.434 8.252 8.195 1.982 1.207 3.456 1.521 4.507.962.065-.035-.182.116 4.042-2.522l6.363 4.563-3.257 3.257z" transform="translate(-129 -283) translate(129.489 283.699)"/>
                </g>
                <path stroke="#00B259" d="M18.5 14.21c-1.185 0-2.145.96-2.145 2.145s.96 2.145 2.145 2.145 2.145-.96 2.145-2.145-.96-2.145-2.145-2.145z" transform="translate(-129 -283) translate(129.489 283.699)"/>
                <path stroke="#00B259" stroke-width="2" d="M27.308 13.053c-1.824 0-3.302 1.478-3.302 3.302 0 1.823 1.478 3.302 3.302 3.302 1.823 0 3.302-1.479 3.302-3.302 0-1.824-1.479-3.302-3.302-3.302z" transform="translate(-129 -283) translate(129.489 283.699)"/>
                <path stroke="#00B259" stroke-width="3" d="M38.584 11.741c-2.548 0-4.613 2.066-4.613 4.614s2.065 4.613 4.613 4.613c2.548 0 4.614-2.065 4.614-4.613 0-2.548-2.066-4.614-4.614-4.614z" transform="translate(-129 -283) translate(129.489 283.699)"/>
            </g>
        </g>
    </g>
</svg>
