<svg xmlns="http://www.w3.org/2000/svg" width="53" height="36" viewBox="0 0 53 36">
    <g fill="none" fill-rule="evenodd">
        <g fill-rule="nonzero">
            <g>
                <path fill="#40A1CE" d="M38.418 0c3.956 0 7.163 3.207 7.163 7.163v15.869c0 3.956-3.207 7.162-7.163 7.162h-25.26l-5.383 3.553c-2.311 1.525-5.421.887-6.946-1.424-.54-.82-.829-1.78-.829-2.761v-22.4C0 3.208 3.207 0 7.163 0h31.255zm0 3.256H7.163c-2.105 0-3.822 1.665-3.904 3.75l-.003.157v22.399c0 .344.1.68.29.968.512.775 1.532 1.013 2.329.565l.107-.066 6.199-4.09h26.237c2.105 0 3.822-1.665 3.904-3.75l.003-.157V7.162c0-2.104-1.665-3.82-3.75-3.903l-.157-.003z" transform="translate(-124 -366) translate(124.56 366.562)"/>
                <path fill="#00B259" d="M29.464 9.438c.9 0 1.628.728 1.628 1.628 0 .861-.67 1.566-1.516 1.624l-.112.003H15.067c-.899 0-1.627-.728-1.627-1.627 0-.862.669-1.567 1.516-1.625l.111-.003h14.397zM40.305 16.429c.9 0 1.628.729 1.628 1.628 0 .861-.67 1.567-1.516 1.624l-.112.004-17.832-.017c-.9 0-1.628-.729-1.628-1.628 0-.862.67-1.567 1.516-1.624l.112-.004 17.832.017zM16.884 16.429c.899 0 1.628.729 1.628 1.628 0 .861-.67 1.567-1.517 1.624l-.111.004-1.817-.017c-.899 0-1.627-.729-1.627-1.628 0-.862.669-1.567 1.516-1.624l.111-.004 1.817.017zM49.441 9.438c.9 0 1.628.728 1.628 1.628 0 .861-.67 1.566-1.517 1.624l-.111.003H35.044c-.899 0-1.627-.728-1.627-1.627 0-.862.669-1.567 1.516-1.625l.111-.003h14.397z" transform="translate(-124 -366) translate(124.56 366.562)"/>
            </g>
        </g>
    </g>
</svg>
