<svg xmlns="http://www.w3.org/2000/svg" width="53" height="42" viewBox="0 0 53 42">
    <g fill="none" fill-rule="evenodd">
        <g fill-rule="nonzero">
            <g>
                <path fill="#40A1CE" d="M7.565 37.217H36.508V40.506H7.565z" transform="translate(-123 -538) translate(123.56 538.452)"/>
                <path fill="#40A1CE" d="M43.762.25c-.59-.265-1.281-.16-1.766.267l-4.605 4.074L32.781.47c-.625-.56-1.569-.56-2.193 0l-4.605 4.117L21.378.47c-.624-.56-1.568-.56-2.192 0l-4.61 4.122L9.97.517C9.486.09 8.795-.015 8.205.25c-.59.266-.97.852-.97 1.5V27.02h-5.59c-.909 0-1.645.737-1.645 1.645v4.002c0 4.322 3.517 7.838 7.839 7.838v-3.289c-2.51 0-4.55-2.041-4.55-4.55V30.31h25.764v2.358c0 4.322 3.517 7.838 7.839 7.838 4.322 0 7.839-3.516 7.839-7.838V1.749c0-.647-.38-1.233-.97-1.5zm-2.32 32.418c0 2.508-2.042 4.55-4.55 4.55-2.509 0-4.55-2.042-4.55-4.55v-4.002c0-.908-.736-1.645-1.644-1.645H10.525V5.4l2.967 2.626c.625.552 1.565.55 2.186-.007l4.604-4.117 4.605 4.117c.624.559 1.568.559 2.193 0L31.685 3.9l4.604 4.118c.622.556 1.562.558 2.186.006l2.967-2.625v27.269z" transform="translate(-123 -538) translate(123.56 538.452)"/>
                <path fill="#00B259" d="M30.32 13.155c.703 0 1.272.728 1.272 1.627 0 .862-.523 1.567-1.185 1.625l-.087.003H19.072c-.702 0-1.272-.729-1.272-1.628 0-.861.523-1.566 1.185-1.624l.087-.003H30.32zM41.164 20.146c.701 0 1.269.729 1.269 1.628 0 .861-.522 1.566-1.182 1.624l-.087.003-13.896-.016c-.7 0-1.268-.729-1.268-1.628 0-.862.521-1.567 1.181-1.624l.087-.004 13.896.017zM21.245 20.146c.899 0 1.628.729 1.628 1.628 0 .861-.67 1.566-1.517 1.624l-.111.003-1.817-.016c-.899 0-1.628-.729-1.628-1.628 0-.862.67-1.567 1.517-1.624l.111-.004 1.817.017zM49.941 13.155c.9 0 1.628.728 1.628 1.627 0 .862-.67 1.567-1.517 1.625l-.111.003H35.544c-.899 0-1.627-.729-1.627-1.628 0-.861.669-1.566 1.516-1.624l.111-.003h14.397z" transform="translate(-123 -538) translate(123.56 538.452)"/>
            </g>
        </g>
    </g>
</svg>
