<svg xmlns="http://www.w3.org/2000/svg" width="22" height="25" viewBox="0 0 22 25">
    <g fill="none" fill-rule="evenodd">
        <g fill="#FFF" fill-rule="nonzero">
            <g>
                <path d="M7.716 11.923c-.146.099-.218.3-.15.421.119.216.498.328.927.507.179-.241.372-.471.577-.69-.19.02-.389-.038-.54-.178-.158-.145-.605-.2-.814-.06zM9.824 4.276H6.23c-.386 0-.69.317-.69.689 0 .38.31.689.69.689h3.593c.38 0 .688-.31.688-.69 0-.372-.303-.688-.688-.688z" transform="translate(-119 -297) translate(119.58 297.741)"/>
                <path d="M7.04 16.607c-.265-.081-.51-.194-.711-.326-.32-.209-.41-.637-.2-.957.209-.319.637-.409.956-.2.066.044.141.082.22.114.121-.412.276-.81.461-1.19-.477-.188-1.071-.423-1.41-1.034-.485-.876-.049-2.047.95-2.421v-.102c0-.382.309-.691.69-.691.382 0 .691.309.691.69v.056c.529.149 1.077.494.994 1.034 1.165-.992 2.631-1.64 4.241-1.784-.907-1.227-1.879-2.315-2.686-3.319-.37.346-.867.559-1.412.559H6.23c-.548 0-1.046-.214-1.416-.562C3.006 8.724 0 11.827 0 14.74c0 2.503 1.14 4.327 3.295 5.274 1.511.664 3.19.777 4.528.787-.662-1.302-.927-2.752-.783-4.194zM5.5 3.028c.228-.086.474-.134.73-.134h3.594c.257 0 .503.048.73.134.473-.566.71-.408.92-.773C12.055 1.253 11.332 0 10.174 0H5.88C4.725 0 4.001 1.251 4.58 2.255c.208.362.447.208.92.773z" transform="translate(-119 -297) translate(119.58 297.741)"/>
                <path d="M14.603 11.148c-3.429 0-6.219 2.79-6.219 6.22 0 3.428 2.79 6.218 6.22 6.218 3.428 0 6.218-2.79 6.218-6.219 0-3.429-2.79-6.219-6.219-6.219zm-2.001 4.22c.269-.27.705-.27.974 0 .269.268.269.704 0 .973-.269.27-.705.27-.974 0-.269-.269-.269-.705 0-.974zm3.909 3.908c-.269.27-.705.27-.974 0-.269-.269-.269-.705 0-.974s.705-.269.974 0c.269.27.269.705 0 .974zm.032-2.896l-2.931 2.932c-.27.27-.708.27-.977 0-.27-.27-.27-.707 0-.977l2.931-2.932c.27-.27.708-.27.977 0 .27.27.27.708 0 .977z" transform="translate(-119 -297) translate(119.58 297.741)"/>
            </g>
        </g>
    </g>
</svg>
