<svg xmlns="http://www.w3.org/2000/svg" width="36" height="40" viewBox="0 0 36 40">
    <g fill="none" fill-rule="evenodd">
        <g fill="#A0C9E1" fill-rule="nonzero">
            <g>
                <path d="M12.759 19.715c-.242.163-.361.495-.25.696.198.357.825.543 1.535.838.295-.399.614-.78.953-1.14-.315.033-.642-.063-.894-.295-.26-.24-.999-.331-1.344-.099zM16.244 7.07h-5.942c-.638 0-1.139.524-1.139 1.14 0 .627.511 1.138 1.14 1.138h5.94c.629 0 1.14-.51 1.14-1.139 0-.617-.503-1.138-1.14-1.138z" transform="translate(-1557 -448) translate(1557.291 448.741)"/>
                <path d="M11.64 27.46c-.438-.134-.842-.32-1.176-.54-.528-.345-.676-1.053-.33-1.58.345-.529 1.053-.677 1.582-.331.109.071.233.134.364.187.2-.681.455-1.339.761-1.967-.79-.312-1.771-.7-2.33-1.71-.803-1.449-.082-3.385 1.568-4.004v-.169c0-.63.512-1.142 1.143-1.142s1.143.511 1.143 1.142v.092c.873.246 1.78.817 1.642 1.71 1.926-1.64 4.352-2.712 7.014-2.95-1.5-2.029-3.107-3.827-4.442-5.488-.612.572-1.433.924-2.335.924h-5.942c-.905 0-1.728-.354-2.341-.93C4.971 14.424 0 19.556 0 24.373c0 4.138 1.884 7.154 5.448 8.72 2.499 1.098 5.275 1.286 7.487 1.3-1.094-2.15-1.532-4.55-1.294-6.933zM9.095 5.006c.376-.142.782-.22 1.207-.22h5.942c.425 0 .832.078 1.207.22.782-.935 1.175-.673 1.523-1.277C19.93 2.072 18.736 0 16.82 0H9.725c-1.912 0-3.11 2.07-2.153 3.729.345.598.74.343 1.523 1.277z" transform="translate(-1557 -448) translate(1557.291 448.741)"/>
                <path d="M24.146 18.434c-5.67 0-10.283 4.613-10.283 10.283 0 5.67 4.613 10.283 10.283 10.283 5.67 0 10.284-4.613 10.284-10.283 0-5.67-4.613-10.283-10.284-10.283zm-3.308 6.976c.444-.445 1.165-.445 1.61 0 .445.445.445 1.166 0 1.61-.445.445-1.166.445-1.61 0-.445-.444-.445-1.165 0-1.61zm6.463 6.463c-.445.445-1.166.445-1.61 0-.445-.444-.445-1.165 0-1.61.444-.445 1.165-.445 1.61 0 .445.445.445 1.166 0 1.61zm.054-4.788l-4.848 4.848c-.446.446-1.17.446-1.616 0-.446-.446-.446-1.17 0-1.616l4.848-4.848c.446-.446 1.17-.446 1.616 0 .446.447.446 1.17 0 1.616z" transform="translate(-1557 -448) translate(1557.291 448.741)"/>
            </g>
        </g>
    </g>
</svg>
