<svg xmlns="http://www.w3.org/2000/svg" width="19" height="19" viewBox="0 0 19 19">
    <g fill="none" fill-rule="evenodd">
        <g fill="#FFF" fill-rule="nonzero">
            <g>
                <path d="M6.938 0H1.313C.589 0 0 .589 0 1.313v3.375C0 5.41.589 6 1.313 6h5.625C7.66 6 8.25 5.411 8.25 4.687V1.313C8.25.59 7.661 0 6.937 0zM6.938 7.5H1.313C.589 7.5 0 8.089 0 8.813v7.874C0 17.412.589 18 1.313 18h5.625c.723 0 1.312-.589 1.312-1.313V8.813c0-.723-.589-1.312-1.313-1.312zM16.688 12h-5.625c-.724 0-1.313.589-1.313 1.313v3.374c0 .724.589 1.313 1.313 1.313h5.624c.724 0 1.313-.589 1.313-1.313v-3.375C18 12.59 17.411 12 16.687 12zM16.688 0h-5.625C10.338 0 9.75.589 9.75 1.313v7.875c0 .723.589 1.312 1.313 1.312h5.624c.724 0 1.313-.589 1.313-1.313V1.314C18 .589 17.411 0 16.687 0z" transform="translate(-121 -237) translate(121.265 237.745)"/>
            </g>
        </g>
    </g>
</svg>
